# xmcd CD database file
#
# Track frame offsets:
#	150
#	7691
#	17503
#	27354
#	38596
#	49372
#	60567
#	70458
#	84678
#	101363
#	111808
#	124516
#	140346
#	152379
#	166216
#	178142
#
# Disc length: 2492 seconds
#
# Revision: 2
# Processed by: cddbd v1.5.1PL2 Copyright (c) Steve Scherf et al.
# Submitted via: CDex 1.70beta2
#
DISCID=c009ba10
DTITLE=St. Nicholas Singers - Soulful Celebrations
DYEAR=1996
DGENRE=Christmas
TTITLE0=Jolly Old St. Nick
TTITLE1=Up On The Housetop
TTITLE2=Let It Snow
TTITLE3=What Child Is This
TTITLE4=Jingle Bells
TTITLE5=Deck The Halls
TTITLE6=O Christmas Tree
TTITLE7=Have Yourself A Merry Little Christmas
TTITLE8=Do You Hear What I Hear
TTITLE9=It Came Upon A Midnight Clear
TTITLE10=O Come All Ye Faithful
TTITLE11=Silent Night
TTITLE12=Santa Baby
TTITLE13=The Christmas Song
TTITLE14=Angels We Have Heard On High
TTITLE15=Joy To The World
EXTD=YEAR: 1996
EXTT0=
EXTT1=
EXTT2=
EXTT3=
EXTT4=
EXTT5=
EXTT6=
EXTT7=
EXTT8=
EXTT9=
EXTT10=
EXTT11=
EXTT12=
EXTT13=
EXTT14=
EXTT15=
PLAYORDER=
